<svg xmlns="http://www.w3.org/2000/svg"  viewBox="0 0 100 100" width="150px" height="150px"><path fill="#c7ede6" d="M87.215,55.71C88.35,53.555,89,51.105,89,48.5c0-6.621-4.159-12.257-10.001-14.478 C78.999,34.015,79,34.008,79,34c0-11.598-9.402-21-21-21c-9.784,0-17.981,6.701-20.313,15.757C36.211,28.272,34.638,28,33,28 c-7.692,0-14.023,5.793-14.89,13.252C12.906,42.353,9,46.969,9,52.5C9,58.851,14.149,64,20.5,64c0.177,0,0.352-0.012,0.526-0.022 C21.022,64.153,21,64.324,21,64.5C21,75.822,30.178,85,41.5,85c6.437,0,12.175-2.972,15.934-7.614C59.612,79.611,62.64,81,66,81 c4.65,0,8.674-2.65,10.666-6.518C77.718,74.817,78.837,75,80,75c6.075,0,11-4.925,11-11C91,60.689,89.53,57.727,87.215,55.71z"/><path fill="#fdfcef" d="M71.5,34.5V35h-3v-0.5c0,0-4.242,0-5.5,0c-2.485,0-4.5-2.015-4.5-4.5 c0-2.333,1.782-4.229,4.055-4.455C62.533,25.364,62.5,25.187,62.5,25c0-2.485,2.015-4.5,4.5-4.5 c1.438,0,2.703,0.686,3.527,1.736C70.667,19.6,72.829,17.5,75.5,17.5c2.761,0,5,2.239,5,5c0,0.446-0.077,0.87-0.187,1.282 c0.642-0.777,1.6-1.282,2.687-1.282c1.781,0,3.234,1.335,3.455,3.055C86.636,25.533,86.813,25.5,87,25.5 c2.485,0,4.5,2.015,4.5,4.5s-2.015,4.5-4.5,4.5s-9.5,0-9.5,0H71.5z"/><path fill="#472b29" d="M75.5,17c3.033,0,5.5,2.467,5.5,5.5c0,0.016,0,0.031,0,0.047C81.602,22.192,82.29,22,83,22 c1.831,0,3.411,1.261,3.858,3.005C86.905,25.002,86.952,25,87,25c2.757,0,5,2.243,5,5s-2.243,5-5,5H71.5 c-0.276,0-0.5-0.224-0.5-0.5s0.224-0.5,0.5-0.5H87c2.206,0,4-1.794,4-4s-1.794-4-4-4c-0.117,0-0.23,0.017-0.343,0.032 l-0.141,0.019c-0.021,0.003-0.041,0.004-0.062,0.004c-0.246,0-0.462-0.185-0.495-0.437C85.768,24.125,84.496,23,83,23 c-0.885,0-1.723,0.401-2.301,1.1c-0.098,0.118-0.241,0.182-0.386,0.182c-0.078,0-0.156-0.018-0.228-0.056 c-0.209-0.107-0.314-0.346-0.254-0.573C79.946,23.218,80,22.852,80,22.5c0-2.481-2.019-4.5-4.5-4.5 c-2.381,0-4.347,1.872-4.474,4.263c-0.011,0.208-0.15,0.387-0.349,0.45c-0.05,0.016-0.101,0.024-0.152,0.024 c-0.15,0-0.296-0.069-0.392-0.192C69.362,21.563,68.221,21,67,21c-2.206,0-4,1.794-4,4c0,0.117,0.017,0.23,0.032,0.343 l0.019,0.141c0.016,0.134-0.022,0.268-0.106,0.373c-0.084,0.105-0.207,0.172-0.34,0.185C60.549,26.247,59,27.949,59,30 c0,2.206,1.794,4,4,4h5.5c0.276,0,0.5,0.224,0.5,0.5S68.776,35,68.5,35H63c-2.757,0-5-2.243-5-5 c0-2.397,1.689-4.413,4.003-4.877C62.001,25.082,62,25.041,62,25c0-2.757,2.243-5,5-5c1.176,0,2.293,0.416,3.183,1.164 C70.781,18.76,72.945,17,75.5,17L75.5,17z"/><path fill="#472b29" d="M77,24c1.403,0,2.609,0.999,2.913,2.341C80.28,26.119,80.699,26,81.125,26 c1.202,0,2.198,0.897,2.353,2.068C83.681,28.022,83.874,28,84.063,28c1.529,0,2.811,1.2,2.918,2.732 C86.99,30.87,86.886,30.99,86.749,31c-0.006,0-0.012,0-0.018,0c-0.13,0-0.24-0.101-0.249-0.232 c-0.089-1.271-1.151-2.268-2.419-2.268c-0.229,0-0.47,0.042-0.738,0.127c-0.022,0.007-0.045,0.01-0.067,0.01 c-0.055,0-0.11-0.02-0.156-0.054C83.038,28.537,83,28.455,83,28.375c0-1.034-0.841-1.875-1.875-1.875 c-0.447,0-0.885,0.168-1.231,0.473c-0.047,0.041-0.106,0.063-0.165,0.063c-0.032,0-0.063-0.006-0.093-0.019 c-0.088-0.035-0.148-0.117-0.155-0.212C79.377,25.512,78.288,24.5,77,24.5c-0.208,0-0.425,0.034-0.682,0.107 c-0.023,0.007-0.047,0.01-0.07,0.01c-0.109,0-0.207-0.073-0.239-0.182c-0.038-0.133,0.039-0.271,0.172-0.309 C76.483,24.04,76.744,24,77,24L77,24z"/><path fill="#472b29" d="M63.117,25.5c1.326,0,2.508,0.897,2.874,2.182c0.038,0.133-0.039,0.271-0.172,0.309 C65.795,27.997,65.772,28,65.75,28c-0.109,0-0.209-0.072-0.24-0.182C65.205,26.748,64.221,26,63.117,26 c-0.117,0-0.23,0.014-0.342,0.029c-0.012,0.002-0.023,0.003-0.035,0.003c-0.121,0-0.229-0.092-0.246-0.217 c-0.019-0.137,0.077-0.263,0.214-0.281C62.842,25.516,62.978,25.5,63.117,25.5L63.117,25.5z"/><path fill="#fff" d="M28.003,74.393h-9.305c-0.257,0-0.465-0.208-0.465-0.465s0.208-0.465,0.465-0.465h9.305 c0.257,0,0.465,0.208,0.465,0.465S28.261,74.393,28.003,74.393z"/><path fill="#fff" d="M26.5,35h-10c-0.276,0-0.5-0.224-0.5-0.5s0.224-0.5,0.5-0.5h10c0.276,0,0.5,0.224,0.5,0.5 S26.776,35,26.5,35z"/><path fill="#fff" d="M30.5,35h-2c-0.276,0-0.5-0.224-0.5-0.5s0.224-0.5,0.5-0.5h2c0.276,0,0.5,0.224,0.5,0.5 S30.776,35,30.5,35z"/><path fill="#fff" d="M35.5,37h-10c-0.276,0-0.5-0.224-0.5-0.5s0.224-0.5,0.5-0.5h10c0.276,0,0.5,0.224,0.5,0.5 S35.777,37,35.5,37z"/><path fill="#fff" d="M23.5,37h-1c-0.276,0-0.5-0.224-0.5-0.5s0.224-0.5,0.5-0.5h1c0.276,0,0.5,0.224,0.5,0.5 S23.776,37,23.5,37z"/><path fill="#fff" d="M29.5,33h-5c-0.276,0-0.5-0.224-0.5-0.5s0.224-0.5,0.5-0.5h5c0.276,0,0.5,0.224,0.5,0.5 S29.777,33,29.5,33z"/><path fill="#fff" d="M26.5,39h-2c-0.276,0-0.5-0.224-0.5-0.5s0.224-0.5,0.5-0.5h2c0.276,0,0.5,0.224,0.5,0.5 S26.776,39,26.5,39z"/><path fill="#78a2d2" d="M43.128,72.908H37.45l3.677-4.509c2.956,1.653,6.286,2.525,9.668,2.525 c3.088,0,6.157-0.732,8.916-2.122l3.085,4.346l-6.396-0.264l-0.974,4.503l-5.356-3.428l-5.417,3.744L43.128,72.908z"/><path fill="#472b29" d="M41.303,69.29c2.928,1.53,6.185,2.334,9.492,2.334c2.996,0,5.975-0.665,8.688-1.933l1.916,2.699 l-4.383-0.181l-1.177-0.048l-0.249,1.151l-0.636,2.942l-4.115-2.634l-0.785-0.502l-0.766,0.53l-4.255,2.941l-1.082-3.406 l-0.31-0.976h-1.024h-3.693L41.303,69.29 M40.961,67.493l-4.985,6.115h6.64l1.656,5.21l5.812-4.018l5.812,3.72l1.062-4.912 l7.234,0.298l-4.265-6.007c-2.717,1.478-5.83,2.325-9.132,2.325C47.205,70.224,43.84,69.222,40.961,67.493L40.961,67.493z"/><path fill="#fff" d="M36.619,74.383c-0.606,0-1.099-0.493-1.099-1.1s0.493-1.1,1.099-1.1c0.606,0,1.1,0.493,1.1,1.1 S37.225,74.383,36.619,74.383z"/><path fill="#472b29" d="M36.619,72.884c0.22,0,0.4,0.179,0.4,0.399s-0.179,0.399-0.4,0.399c-0.22,0-0.399-0.179-0.399-0.399 S36.398,72.884,36.619,72.884 M36.619,71.484c-0.994,0-1.799,0.806-1.799,1.799s0.806,1.799,1.799,1.799 c0.994,0,1.799-0.806,1.799-1.799S37.613,71.484,36.619,71.484L36.619,71.484z"/><path fill="#fff" d="M44.261,79.282c-0.606,0-1.099-0.493-1.099-1.1c0-0.605,0.493-1.099,1.099-1.099 c0.606,0,1.1,0.493,1.1,1.099C45.36,78.789,44.867,79.282,44.261,79.282z"/><path fill="#472b29" d="M44.261,77.783c0.22,0,0.399,0.179,0.399,0.4c0,0.22-0.179,0.399-0.399,0.399 c-0.22,0-0.4-0.179-0.4-0.399C43.861,77.962,44.041,77.783,44.261,77.783 M44.261,76.383c-0.994,0-1.799,0.806-1.799,1.8 c0,0.994,0.806,1.799,1.799,1.799c0.994,0,1.799-0.806,1.799-1.799C46.06,77.189,45.255,76.383,44.261,76.383L44.261,76.383z"/><path fill="#fff" d="M44.261,79.282c-0.606,0-1.099-0.493-1.099-1.1c0-0.605,0.493-1.099,1.099-1.099 c0.606,0,1.1,0.493,1.1,1.099C45.36,78.789,44.867,79.282,44.261,79.282z"/><path fill="#472b29" d="M44.261,77.783c0.22,0,0.399,0.179,0.399,0.4c0,0.22-0.179,0.399-0.399,0.399 c-0.22,0-0.4-0.179-0.4-0.399C43.861,77.962,44.041,77.783,44.261,77.783 M44.261,76.383c-0.994,0-1.799,0.806-1.799,1.8 c0,0.994,0.806,1.799,1.799,1.799c0.994,0,1.799-0.806,1.799-1.799C46.06,77.189,45.255,76.383,44.261,76.383L44.261,76.383z"/><circle cx="63.5" cy="73.256" r="1.5" fill="#472b29"/><path fill="#472b29" d="M55.5,76.756c-0.828,0-1.5,0.672-1.5,1.5c0,0.828,0.672,1.5,1.5,1.5s1.5-0.672,1.5-1.5	C57,77.428,56.328,76.756,55.5,76.756z"/><path fill="#78a2d2" d="M28.336,48.337l-1.22-18.678l0.412-0.209c0.181-0.092,0.344-0.225,0.473-0.385l0.21-0.262h0.521 l0.17,0.093L43.7,37.35v4.866l-0.423,0.183c-3.801,1.641-6.889,4.037-8.695,6.746l-0.26,0.39L28.336,48.337z"/><path fill="#472b29" d="M28.556,29.504L43,37.756v4c-3.628,1.566-7,4-9,7l-5-1l-1.155-17.682 c0.268-0.135,0.508-0.329,0.702-0.57H28.556 M28.928,28.104h-0.372h-0.009h-0.672l-0.42,0.524c-0.067,0.084-0.148,0.15-0.241,0.197 l-0.826,0.417l0.06,0.923l1.155,17.682l0.07,1.071l1.053,0.21l5,1l0.919,0.184l0.52-0.78c1.732-2.599,4.712-4.904,8.39-6.491 l0.845-0.365v-0.921v-4v-0.812l-0.705-0.403l-14.444-8.252L28.928,28.104L28.928,28.104z"/><path fill="#78a2d2" d="M67.4,49.117c-1.598-2.658-4.437-4.856-8.681-6.72L58.3,42.213v-4.883l15.575-8.062h0.51 l0.219,0.268c0.13,0.164,0.295,0.302,0.478,0.396l0.425,0.218l-1.863,18.191l-5.99,1.198L67.4,49.117z"/><path fill="#472b29" d="M74.055,29.969c0.195,0.248,0.437,0.446,0.707,0.585L73,47.756l-5,1c-1.935-3.22-5.343-5.395-9-7v-4 l15.046-7.787H74.055 M74.734,28.569h-0.679h-0.009h-0.341l-0.303,0.157l-15.046,7.787L57.6,36.905v0.852v4v0.914l0.837,0.367 c4.107,1.803,6.842,3.909,8.363,6.439l0.508,0.845l0.967-0.193l5-1l1.013-0.203l0.105-1.027l1.762-17.203l0.097-0.951l-0.851-0.437 c-0.095-0.049-0.178-0.118-0.247-0.206L74.734,28.569L74.734,28.569z"/><polyline fill="none" stroke="#472b29" stroke-linecap="round" stroke-linejoin="round" stroke-miterlimit="10" stroke-width=".5" points="30.5,45.256 29.5,31.256 41.5,38.256"/><line x1="68.478" x2="66.187" y1="34.535" y2="35.598" fill="none" stroke="#472b29" stroke-linecap="round" stroke-linejoin="round" stroke-miterlimit="10" stroke-width=".5"/><polyline fill="none" stroke="#472b29" stroke-linecap="round" stroke-linejoin="round" stroke-miterlimit="10" stroke-width=".5" points="71.873,44.805 73.144,33.178 73.243,32.295 72.485,32.675 69.409,34.103"/><path fill="#fdfcef" d="M30.083,82.5c0,0-1.567,0-3.5,0s-3.5-1.567-3.5-3.5c0-1.781,1.335-3.234,3.055-3.455 c-0.028-0.179-0.055-0.358-0.055-0.545c0-1.933,1.567-3.5,3.5-3.5c1.032,0,1.95,0.455,2.59,1.165 c0.384-1.808,1.987-3.165,3.91-3.165c2.209,0,4,1.791,4,4c0,0.191-0.03,0.374-0.056,0.558c0.428-0.344,0.964-0.558,1.556-0.558 c1.228,0,2.245,0.887,2.455,2.055c0.179-0.028,0.358-0.055,0.545-0.055c1.933,0,3.5,1.567,3.5,3.5s-1.567,3.5-3.5,3.5 s-7.5,0-7.5,0V83h-7V82.5z"/><path fill="#472b29" d="M28.333,78c0.138,0,0.25-0.112,0.25-0.25c0-1.223-0.995-2.218-2.218-2.218 c-0.034,0.009-0.737-0.001-1.244,0.136c-0.133,0.036-0.212,0.173-0.176,0.306c0.036,0.134,0.173,0.213,0.306,0.176 c0.444-0.12,1.1-0.12,1.113-0.118c0.948,0,1.719,0.771,1.719,1.718C28.083,77.888,28.195,78,28.333,78z"/><circle cx="35.083" cy="82.5" r=".5" fill="#472b29"/><path fill="#472b29" d="M26.583,83h3.5c0.276,0,0.5-0.224,0.5-0.5s-0.224-0.5-0.5-0.5h-3.5c-1.654,0-3-1.346-3-3 c0-1.496,1.125-2.768,2.618-2.959c0.134-0.018,0.255-0.088,0.336-0.196c0.081-0.108,0.115-0.244,0.094-0.377 c-0.023-0.154-0.048-0.308-0.048-0.468c0-1.654,1.346-3,3-3c0.85,0,1.638,0.355,2.219,1c0.125,0.139,0.321,0.198,0.5,0.148 c0.182-0.049,0.321-0.195,0.36-0.379C33.003,71.165,34.442,70,36.083,70c1.93,0,3.5,1.57,3.5,3.5 c0,0.143-0.021,0.28-0.041,0.418c-0.029,0.203,0.063,0.438,0.242,0.54s0.396,0.118,0.556-0.01 C40.705,74.155,41.134,74,41.583,74c0.966,0,1.792,0.691,1.963,1.644c0.048,0.267,0.296,0.446,0.569,0.405 C44.269,76.025,44.423,76,44.583,76c1.654,0,3,1.346,3,3s-1.346,3-3,3h-7.5c-0.276,0-0.5,0.224-0.5,0.5s0.224,0.5,0.5,0.5h7.5 c2.206,0,4-1.794,4-4s-1.794-4-4-4c-0.059,0-0.116,0.002-0.174,0.006C43.995,73.82,42.872,73,41.583,73 c-0.349,0-0.689,0.061-1.011,0.18C40.407,70.847,38.457,69,36.083,69c-1.831,0-3.466,1.127-4.153,2.774 C31.25,71.276,30.428,71,29.583,71c-2.206,0-4,1.794-4,4c0,0.048,0.001,0.095,0.004,0.142c-1.743,0.448-3.004,2.027-3.004,3.858 C22.583,81.206,24.377,83,26.583,83z"/><path fill="#472b29" d="M32.083,82c0.159,0,0.841,0,1,0c0.276,0,0.5,0.224,0.5,0.5s-0.224,0.5-0.5,0.5 c-0.159,0-0.841,0-1,0c-0.276,0-0.5-0.224-0.5-0.5S31.807,82,32.083,82z"/><path fill="#78a2d2" d="M51.265,70.723c-3.316,0-6.57-0.737-9.409-2.131c-5.56-2.725-9.013-7.72-9.013-13.035	c0-2.555,0.79-5.078,2.284-7.297c1.832-2.754,4.743-5.023,8.199-6.393c2.487-0.979,5.158-1.476,7.94-1.476	c2.427,0,4.789,0.383,7.022,1.137c3.795,1.293,6.999,3.634,9.022,6.591c1.557,2.255,2.379,4.826,2.379,7.438	c0,5.583-3.71,10.698-9.683,13.35C57.326,70.095,54.304,70.723,51.265,70.723z"/><path fill="none" stroke="#472b29" stroke-linecap="round" stroke-linejoin="round" stroke-miterlimit="10" stroke-width=".5" d="M57.976,43.856c5.444,2.355,9.185,7.244,9.185,12.894"/><g><path fill="#fff" d="M51.716,71.358c-5.898,0-10.357-2.233-10.544-2.329l-0.09-0.045l-0.065-0.077 c-0.175-0.206-4.267-5.102-3.107-9.813c0.618-2.512,2.604-4.463,5.902-5.801l0.141-0.057l0.149,0.031 c2.924,0.612,5.985,2.355,6.897,2.903c0.913-0.548,3.974-2.291,6.897-2.903l0.149-0.031l0.141,0.057 c3.344,1.356,5.381,3.341,6.052,5.9c1.227,4.677-2.556,9.499-2.718,9.702l-0.065,0.082l-0.092,0.049 C58.439,70.573,55.193,71.358,51.716,71.358C51.717,71.358,51.716,71.358,51.716,71.358z"/><path fill="#472b29" d="M58,53.756c11.293,4.577,3.131,14.827,3.131,14.827c-3.225,1.706-6.491,2.274-9.415,2.274 c-5.846,0-10.318-2.274-10.318-2.274S32.707,58.333,44,53.756c3.364,0.704,7,3,7,3S54.636,54.46,58,53.756 M58.093,52.715 l-0.298,0.062c-2.761,0.578-5.631,2.133-6.795,2.812c-1.164-0.679-4.034-2.234-6.795-2.812l-0.298-0.062l-0.282,0.114 c-3.456,1.401-5.542,3.468-6.2,6.144c-1.22,4.957,3.03,10.043,3.212,10.257l0.13,0.153l0.179,0.091 c0.191,0.097,4.754,2.383,10.771,2.383c3.559,0,6.884-0.804,9.883-2.391l0.185-0.098l0.13-0.163c0.168-0.211,4.1-5.224,2.81-10.14 c-0.714-2.72-2.85-4.819-6.348-6.236L58.093,52.715L58.093,52.715z"/></g><ellipse cx="51.206" cy="65.843" fill="#472b29" rx="1.454" ry=".981"/><path fill="#472b29" d="M58.723,64.172c-0.974,0.202-2.015-0.845-2.321-2.333c-0.067-0.306-0.192-0.63-0.289-1.177	l0.908-0.281l2.168-0.863c0.343,0.41,0.606,0.961,0.735,1.592C60.235,62.599,59.69,63.97,58.723,64.172z"/><line x1="56.505" x2="60.915" y1="60.412" y2="58.827" fill="none" stroke="#472b29" stroke-linecap="round" stroke-linejoin="round" stroke-miterlimit="10"/><line x1="59.027" x2="60.753" y1="61.05" y2="60.358" fill="none" stroke="#472b29" stroke-linecap="round" stroke-linejoin="round" stroke-miterlimit="10"/><path fill="#472b29" d="M43.9,64.172c0.974,0.202,2.015-0.845,2.321-2.333c0.067-0.306,0.192-0.63,0.289-1.177l-0.908-0.281	l-2.168-0.863c-0.343,0.41-0.606,0.961-0.735,1.592C42.388,62.599,42.932,63.97,43.9,64.172z"/><line x1="46.091" x2="41.708" y1="60.36" y2="58.827" fill="none" stroke="#472b29" stroke-linecap="round" stroke-linejoin="round" stroke-miterlimit="10"/><line x1="43.596" x2="41.869" y1="61.05" y2="60.358" fill="none" stroke="#472b29" stroke-linecap="round" stroke-linejoin="round" stroke-miterlimit="10"/><g><path fill="#fff" d="M48.265,52.334v-1.41c-1.674-0.745-2.699-2.121-2.699-3.656c0-2.337,2.444-4.237,5.449-4.237 s5.449,1.9,5.449,4.237c0,1.535-1.025,2.911-2.699,3.656v1.41H48.265z"/><path fill="#472b29" d="M51.015,43.531c2.735,0,4.949,1.669,4.949,3.737c0,1.453-1.098,2.715-2.699,3.322v1.246h-4.499 v-1.246c-1.602-0.606-2.699-1.869-2.699-3.322C46.066,45.2,48.279,43.531,51.015,43.531 M51.015,42.531 c-3.28,0-5.949,2.125-5.949,4.737c0,1.644,1.018,3.118,2.699,3.972v0.595v1h1h4.499h1v-1V51.24 c1.682-0.854,2.699-2.328,2.699-3.972C56.963,44.656,54.295,42.531,51.015,42.531L51.015,42.531z"/></g><ellipse cx="48.765" cy="47.498" fill="none" stroke="#472b29" stroke-miterlimit="10" rx="1.031" ry=".885" transform="rotate(-57.663 48.766 47.5)"/><ellipse cx="53.264" cy="47.498" fill="none" stroke="#472b29" stroke-miterlimit="10" rx=".885" ry="1.031" transform="rotate(-32.339 53.263 47.5)"/><path fill="#472b29" d="M51.265,41.08c2.355,0,4.648,0.382,6.81,1.134c3.664,1.285,6.752,3.603,8.699,6.534	c1.48,2.207,2.262,4.722,2.262,7.274c0,5.478-3.562,10.509-9.295,13.13c-2.597,1.186-5.528,1.812-8.477,1.812	c-3.217,0-6.372-0.735-9.123-2.125c-5.334-2.692-8.648-7.603-8.648-12.817c0-2.496,0.751-4.964,2.177-7.144	c1.756-2.719,4.56-4.965,7.892-6.325C45.974,41.576,48.566,41.08,51.265,41.08 M51.265,39.739c-2.928,0-5.705,0.563-8.18,1.567	c-3.602,1.47-6.583,3.864-8.499,6.83c-1.526,2.332-2.395,5.026-2.395,7.886c0,5.967,3.762,11.187,9.377,14.021	c2.839,1.435,6.157,2.262,9.697,2.262c3.256,0,6.326-0.704,9.005-1.928c5.988-2.737,10.069-8.15,10.069-14.355	c0-2.922-0.905-5.668-2.493-8.036c-2.094-3.151-5.385-5.651-9.351-7.041C56.268,40.17,53.829,39.739,51.265,39.739L51.265,39.739z"/><g><path fill="#78a2d2" d="M75.494,30.056c-0.275,0-0.539-0.062-0.783-0.185c-0.225-0.108-0.412-0.253-0.564-0.435 l-0.131-0.156c-0.312-0.452-0.398-1.015-0.234-1.571c0.174-0.592,0.694-1.077,1.294-1.208c0.139-0.03,0.28-0.045,0.418-0.045 c0.548,0,1.059,0.242,1.403,0.665c0.35,0.43,0.478,0.978,0.361,1.541c-0.125,0.603-0.611,1.129-1.209,1.31 C75.864,30.028,75.678,30.056,75.494,30.056z"/><path fill="#472b29" d="M75.495,27.156c0.336,0,0.649,0.148,0.859,0.407c0.124,0.153,0.318,0.48,0.219,0.957 c-0.073,0.353-0.372,0.675-0.726,0.782c-0.119,0.036-0.237,0.054-0.351,0.054c-0.165,0-0.324-0.037-0.489-0.12 c-0.124-0.06-0.236-0.146-0.323-0.25l-0.094-0.109c-0.122-0.182-0.269-0.518-0.136-0.97c0.103-0.349,0.42-0.645,0.771-0.721 C75.315,27.166,75.406,27.156,75.495,27.156 M75.495,25.756c-0.185,0-0.376,0.02-0.569,0.062c-0.854,0.186-1.569,0.855-1.816,1.693 c-0.267,0.904-0.029,1.77,0.49,2.375h0.01c0.217,0.259,0.487,0.466,0.787,0.611c0.331,0.166,0.704,0.259,1.097,0.259 c0.246,0,0.5-0.036,0.757-0.114c0.841-0.255,1.512-0.976,1.691-1.837C78.282,27.179,77.059,25.756,75.495,25.756L75.495,25.756z"/></g><g><path fill="#78a2d2" d="M27.505,30.056c-0.996,0-1.805-0.834-1.805-1.859c0-1.032,0.81-1.871,1.805-1.871 c0.99,0,1.794,0.839,1.794,1.871c0,0.398-0.122,0.784-0.347,1.101l-0.105,0.123c-0.151,0.185-0.343,0.338-0.555,0.442 C28.04,29.993,27.778,30.056,27.505,30.056z"/><path fill="#472b29" d="M27.505,27.026c0.604,0,1.095,0.525,1.095,1.171c0,0.234-0.066,0.46-0.188,0.651l-0.106,0.13 c-0.09,0.11-0.199,0.197-0.343,0.268c-0.144,0.074-0.298,0.111-0.458,0.111c-0.609,0-1.105-0.52-1.105-1.16 C26.4,27.551,26.896,27.026,27.505,27.026 M27.505,25.626c-1.387,0-2.505,1.147-2.505,2.571c0,1.413,1.118,2.56,2.505,2.56 c0.393,0,0.766-0.096,1.097-0.266c0.3-0.149,0.569-0.361,0.787-0.627h0.01c0.373-0.446,0.6-1.03,0.6-1.668 C30,26.773,28.882,25.626,27.505,25.626L27.505,25.626z"/></g></svg>